<svg width="131" height="32" viewBox="0 0 131 32" fill="none" xmlns="http://www.w3.org/2000/svg">
<path d="M16.4062 0C13.2417 -3.77363e-08 10.1483 0.938383 7.51713 2.69649C4.88594 4.45459 2.83518 6.95345 1.62418 9.87706C0.413176 12.8007 0.096322 16.0177 0.713685 19.1214C1.33105 22.2251 2.8549 25.0761 5.09254 27.3137C7.33018 29.5513 10.1811 31.0752 13.2848 31.6926C16.3885 32.3099 19.6056 31.9931 22.5292 30.7821C25.4528 29.5711 27.9517 27.5203 29.7098 24.8891C31.4679 22.2579 32.4062 19.1645 32.4062 16L24.4062 16C24.4062 17.5823 23.9371 19.129 23.058 20.4446C22.179 21.7602 20.9295 22.7855 19.4677 23.391C18.0059 23.9965 16.3974 24.155 14.8455 23.8463C13.2937 23.5376 11.8682 22.7757 10.7494 21.6569C9.63057 20.538 8.86865 19.1126 8.55997 17.5607C8.25129 16.0089 8.40971 14.4003 9.01521 12.9385C9.62072 11.4767 10.6461 10.2273 11.9617 9.34824C13.2773 8.46919 14.824 8 16.4062 8V0Z" fill="white"/>
<path d="M16.4062 0C14.3051 -2.5056e-08 12.2245 0.413852 10.2833 1.21793C8.3421 2.022 6.57828 3.20055 5.09254 4.68629C3.6068 6.17203 2.42825 7.93586 1.62418 9.87707C0.820102 11.8183 0.40625 13.8989 0.40625 16H8.40625C8.40625 14.9494 8.61318 13.9091 9.01521 12.9385C9.41725 11.9679 10.0065 11.086 10.7494 10.3431C11.4923 9.60028 12.3742 9.011 13.3448 8.60896C14.3154 8.20693 15.3557 8 16.4062 8V0Z" fill="#5CE1E6"/>
<circle cx="16.4062" cy="16" r="5" fill="#5CE1E6"/>
<path d="M21.4062 16C21.4062 15.3434 21.2769 14.6932 21.0256 14.0866C20.7744 13.48 20.4061 12.9288 19.9418 12.4645C19.4775 12.0002 18.9263 11.6319 18.3197 11.3806C17.713 11.1293 17.0629 11 16.4062 11C15.7496 11 15.0995 11.1293 14.4928 11.3806C13.8862 11.6319 13.335 12.0002 12.8707 12.4645C12.4064 12.9288 12.0381 13.48 11.7869 14.0866C11.5356 14.6932 11.4062 15.3434 11.4063 16L16.4062 16H21.4062Z" fill="white"/>
<path d="M46.3963 14.216C46.1083 13.688 45.7123 13.286 45.2083 13.01C44.7043 12.734 44.1163 12.596 43.4443 12.596C42.7003 12.596 42.0403 12.764 41.4643 13.1C40.8883 13.436 40.4383 13.916 40.1143 14.54C39.7903 15.164 39.6283 15.884 39.6283 16.7C39.6283 17.54 39.7903 18.272 40.1143 18.896C40.4503 19.52 40.9123 20 41.5003 20.336C42.0883 20.672 42.7723 20.84 43.5523 20.84C44.5123 20.84 45.2983 20.588 45.9102 20.084C46.5223 19.568 46.9243 18.854 47.1163 17.942H42.7963V16.016H49.6003V18.212C49.4323 19.088 49.0723 19.898 48.5203 20.642C47.9683 21.386 47.2543 21.986 46.3783 22.442C45.5143 22.886 44.5423 23.108 43.4623 23.108C42.2503 23.108 41.1523 22.838 40.1683 22.298C39.1963 21.746 38.4283 20.984 37.8643 20.012C37.3123 19.04 37.0363 17.936 37.0363 16.7C37.0363 15.464 37.3123 14.36 37.8643 13.388C38.4283 12.404 39.1963 11.642 40.1683 11.102C41.1523 10.55 42.2443 10.274 43.4443 10.274C44.8603 10.274 46.0903 10.622 47.1343 11.318C48.1783 12.002 48.8983 12.968 49.2943 14.216H46.3963ZM60.7347 17.798C60.7347 18.158 60.7107 18.482 60.6627 18.77H53.3727C53.4327 19.49 53.6847 20.054 54.1287 20.462C54.5727 20.87 55.1187 21.074 55.7667 21.074C56.7027 21.074 57.3687 20.672 57.7647 19.868H60.4827C60.1947 20.828 59.6427 21.62 58.8267 22.244C58.0107 22.856 57.0087 23.162 55.8207 23.162C54.8607 23.162 53.9967 22.952 53.2287 22.532C52.4727 22.1 51.8787 21.494 51.4467 20.714C51.0267 19.934 50.8167 19.034 50.8167 18.014C50.8167 16.982 51.0267 16.076 51.4467 15.296C51.8667 14.516 52.4547 13.916 53.2107 13.496C53.9667 13.076 54.8367 12.866 55.8207 12.866C56.7687 12.866 57.6147 13.07 58.3587 13.478C59.1147 13.886 59.6967 14.468 60.1047 15.224C60.5247 15.968 60.7347 16.826 60.7347 17.798ZM58.1247 17.078C58.1127 16.43 57.8787 15.914 57.4227 15.53C56.9667 15.134 56.4087 14.936 55.7487 14.936C55.1247 14.936 54.5967 15.128 54.1647 15.512C53.7447 15.884 53.4867 16.406 53.3907 17.078H58.1247ZM68.1 12.884C69.288 12.884 70.248 13.262 70.98 14.018C71.712 14.762 72.078 15.806 72.078 17.15V23H69.558V17.492C69.558 16.7 69.36 16.094 68.964 15.674C68.568 15.242 68.028 15.026 67.344 15.026C66.648 15.026 66.096 15.242 65.688 15.674C65.292 16.094 65.094 16.7 65.094 17.492V23H62.574V13.028H65.094V14.27C65.43 13.838 65.856 13.502 66.372 13.262C66.9 13.01 67.476 12.884 68.1 12.884ZM77.0484 20.876H82.7004V23H74.1324V21.056L79.7484 12.56H74.1324V10.436H82.7004V12.38L77.0484 20.876Z" fill="white"/>
<path d="M91.9735 16.556C92.6815 16.688 93.2635 17.042 93.7195 17.618C94.1755 18.194 94.4035 18.854 94.4035 19.598C94.4035 20.27 94.2355 20.864 93.8995 21.38C93.5755 21.884 93.1015 22.28 92.4775 22.568C91.8535 22.856 91.1155 23 90.2635 23H84.8455V10.436H90.0295C90.8815 10.436 91.6135 10.574 92.2255 10.85C92.8495 11.126 93.3175 11.51 93.6295 12.002C93.9535 12.494 94.1155 13.052 94.1155 13.676C94.1155 14.408 93.9175 15.02 93.5215 15.512C93.1375 16.004 92.6215 16.352 91.9735 16.556ZM87.3655 15.62H89.6695C90.2695 15.62 90.7315 15.488 91.0555 15.224C91.3795 14.948 91.5415 14.558 91.5415 14.054C91.5415 13.55 91.3795 13.16 91.0555 12.884C90.7315 12.608 90.2695 12.47 89.6695 12.47H87.3655V15.62ZM89.9035 20.948C90.5155 20.948 90.9895 20.804 91.3255 20.516C91.6735 20.228 91.8475 19.82 91.8475 19.292C91.8475 18.752 91.6675 18.332 91.3075 18.032C90.9475 17.72 90.4615 17.564 89.8495 17.564H87.3655V20.948H89.9035ZM95.7639 17.978C95.7639 16.97 95.9619 16.076 96.3579 15.296C96.7659 14.516 97.3119 13.916 97.9959 13.496C98.6919 13.076 99.4659 12.866 100.318 12.866C101.062 12.866 101.71 13.016 102.262 13.316C102.826 13.616 103.276 13.994 103.612 14.45V13.028H106.15V23H103.612V21.542C103.288 22.01 102.838 22.4 102.262 22.712C101.698 23.012 101.044 23.162 100.3 23.162C99.4599 23.162 98.6919 22.946 97.9959 22.514C97.3119 22.082 96.7659 21.476 96.3579 20.696C95.9619 19.904 95.7639 18.998 95.7639 17.978ZM103.612 18.014C103.612 17.402 103.492 16.88 103.252 16.448C103.012 16.004 102.688 15.668 102.28 15.44C101.872 15.2 101.434 15.08 100.966 15.08C100.498 15.08 100.066 15.194 99.6699 15.422C99.2739 15.65 98.9499 15.986 98.6979 16.43C98.4579 16.862 98.3379 17.378 98.3379 17.978C98.3379 18.578 98.4579 19.106 98.6979 19.562C98.9499 20.006 99.2739 20.348 99.6699 20.588C100.078 20.828 100.51 20.948 100.966 20.948C101.434 20.948 101.872 20.834 102.28 20.606C102.688 20.366 103.012 20.03 103.252 19.598C103.492 19.154 103.612 18.626 103.612 18.014ZM114.137 12.884C115.325 12.884 116.285 13.262 117.017 14.018C117.749 14.762 118.115 15.806 118.115 17.15V23H115.595V17.492C115.595 16.7 115.397 16.094 115.001 15.674C114.605 15.242 114.065 15.026 113.381 15.026C112.685 15.026 112.133 15.242 111.725 15.674C111.329 16.094 111.131 16.7 111.131 17.492V23H108.611V13.028H111.131V14.27C111.467 13.838 111.893 13.502 112.409 13.262C112.937 13.01 113.513 12.884 114.137 12.884ZM126.416 23L123.032 18.752V23H120.512V9.68H123.032V17.258L126.38 13.028H129.656L125.264 18.032L129.692 23H126.416Z" fill="#5CE1E6"/>
</svg>
